<?xml version="1.0" encoding="UTF-8"?>
<svg id="Layer_1" data-name="Layer 1" xmlns="http://www.w3.org/2000/svg" viewBox="0 0 87.65 101.97">
  <defs>
    <style>
      .cls-1 {
        fill: #fff;
        stroke-width: 0px;
      }
    </style>
  </defs>
  <path class="cls-1" d="m0,50.98c0-12.76,0-25.51,0-38.27C0,5.08,5.07.02,12.72.02,28.51.02,44.3.03,60.09,0c.94,0,1.62.24,2.3.92,8.19,8.24,16.41,16.44,24.59,24.68.37.37.64,1.04.64,1.56.03,20.92.04,41.83.02,62.75,0,6.76-5.22,12.03-11.97,12.03-21.22.03-42.43.03-63.65,0-6.78,0-12-5.31-12.01-12.13-.02-12.95,0-25.89,0-38.84ZM55.77,8c-.52,0-.89,0-1.26,0-13.97,0-27.93,0-41.9,0-3.11,0-4.63,1.51-4.63,4.6,0,25.58,0,51.17,0,76.75,0,3.1,1.51,4.63,4.6,4.63,20.84,0,41.67,0,62.51,0,3.1,0,4.58-1.5,4.58-4.63,0-18.71,0-37.43,0-56.14v-1.32c-.54,0-.95,0-1.36,0-3.34,0-6.68,0-10.02,0-7.35-.01-12.52-5.2-12.52-12.57,0-3.72,0-7.43,0-11.32Zm7.98,5.88c0,2.11-.04,4.15.01,6.19.04,1.64,1.13,3.35,2.68,3.56,2.39.33,4.84.28,7.45.4-3.51-3.52-6.79-6.8-10.14-10.15Z"/>
  <path class="cls-1" d="m39.82,31.08h7.93v26.21c3.13-3.21,6.04-6.21,8.88-9.12,2.05,2.05,3.87,3.86,5.6,5.59-6.09,6.08-12.3,12.28-18.46,18.43-6.01-6.03-12.19-12.23-18.3-18.35,1.71-1.67,3.56-3.49,5.56-5.44,2.68,2.76,5.6,5.75,8.51,8.74.1-.06.19-.12.29-.18v-25.88Z"/>
  <path class="cls-1" d="m63.68,78.94v7.86H23.98v-7.86h39.7Z"/>
</svg>