<svg width="84" height="55" viewBox="0 0 84 55" fill="none" xmlns="http://www.w3.org/2000/svg">
<g clip-path="url(#clip0_721_94)">
<path d="M17.4593 26.2949C17.4464 27.6171 17.4593 28.9392 17.4077 30.2592C17.384 30.8505 17.6507 31.102 18.1648 31.2224C22.0409 32.1275 25.9772 32.7402 29.8532 33.6646C30.9266 33.9205 32.0817 34.1376 33.2453 33.8409C34.3423 33.5614 35.2221 32.8885 36.1986 32.3941C37.8829 31.5427 39.5456 30.6333 41.5245 30.8505C42.3311 30.9386 43.1786 31.031 43.7744 31.8093C41.9654 32.9401 40.0532 33.7506 38.4163 35.0169C38.4794 35.1989 38.4794 35.1989 38.4163 35.0169C37.3623 36.2079 37.2354 37.4462 38.0528 38.5964C38.9024 39.7917 40.5694 40.2862 41.9697 39.7036C43.3141 39.1446 44.6498 38.5556 45.9662 37.93C46.7858 37.5408 47.4934 37.5602 48.2699 38.0719C49.2787 38.7362 53.7786 42.4533 55.024 43.6486C55.5768 44.1796 55.8371 44.6891 55.6714 45.4201C54.9057 46.0242 54.1658 46.753 53.1096 45.949C52.4987 45.5383 51.2146 44.2054 50.9802 44.73C51.8169 45.4824 52.4643 46.0651 53.1225 46.6563C53.357 47.269 52.972 47.7548 52.8451 47.987C51.191 49.4124 49.0249 46.5552 48.5883 47.1314C50.1563 48.8964 50.4037 49.5693 48.9754 50.5346C48.3259 50.7002 47.7666 50.4572 47.2202 50.1541C46.6481 49.6725 45.4995 48.5589 45.3317 48.8384C45.2478 49.019 46.3061 49.78 46.6954 50.1885C46.9256 50.855 46.9514 51.4849 46.3771 52.0116L46.2867 51.9965C46.2867 51.9965 46.2373 52.0782 46.2373 52.0804C44.6348 52.6114 43.6733 52.0331 43.4603 50.3906C43.3442 49.4984 42.8731 49.2039 42.1203 48.3912C40.7114 47.4947 39.765 46.0694 38.3475 45.16C37.5494 44.6483 36.7364 44.0076 36.2287 43.2315C34.8414 41.1075 30.933 41.4084 29.6446 43.4336C29.4123 43.7991 29.1284 44.1216 28.6143 44.07C26.872 43.8915 25.106 43.8421 23.3917 43.5218C20.3029 42.9478 17.1517 42.7543 14.1059 41.9459C13.8951 41.89 13.6284 41.7675 13.4176 42.0599C13.9704 42.4253 14.5082 42.7328 15.119 42.9585C17.2141 43.7282 17.3733 44.027 17.4034 46.2198C17.4163 47.2066 17.2313 48.2106 17.5755 49.1802C17.5647 49.4769 17.6916 49.6833 17.8852 49.9284C18.5864 50.8141 19.6253 50.9775 20.5825 51.3344C23.2175 52.3169 25.917 53.1145 28.6638 53.6562C31.5998 54.2345 34.5553 54.7075 37.5688 54.8731C42.23 55.131 46.8653 55.002 51.4856 54.4302C54.1292 54.1034 56.7727 53.6175 59.313 52.8242C60.7822 52.3663 66.3855 50.7539 66.8587 49.35C67.2674 47.742 66.9748 46.1059 67.0243 44.4849C67.0587 43.3455 67.7599 42.3307 68.8096 41.8836C69.7991 41.4622 70.8165 41.0172 71.6231 40.2454C69.4162 40.6173 67.2738 41.1526 65.1056 41.5589C62.7245 42.0061 60.4294 42.8897 57.9751 42.9692C57.717 42.8639 57.4589 42.8661 57.1986 42.9628C56.549 42.7951 55.9597 42.5672 55.4348 42.0857C54.6304 41.3482 50.0574 37.4484 48.9797 36.6422C48.1968 36.0574 47.3106 35.8166 46.2738 36.2531C44.7036 36.9152 43.3076 37.93 41.6578 38.4201C40.7178 38.6975 39.8704 38.6072 39.2358 37.8225C38.6056 37.0399 38.9218 36.2832 39.4466 35.5759C40.7609 34.6063 42.2945 34.028 43.6969 33.2153C45.3338 32.2651 46.975 31.3148 48.67 30.4764C49.5906 30.0206 50.5177 30.126 51.4577 30.786C52.4106 31.4524 53.3204 32.2178 54.411 32.68L54.9509 33.0132C55.1036 33.1401 55.2584 33.2648 55.4112 33.3916L55.6499 33.5571C56.0221 33.9742 56.5168 33.7764 56.962 33.8087C57.5772 33.8538 65.6541 31.618 66.8307 30.9966C67.1663 30.872 67.0351 30.5774 67.0372 30.3581C67.0415 28.864 67.0243 27.3677 67.0157 25.8735L77.1533 21.7694C77.4759 22.0554 77.3727 25.263 77.3877 26.5077C77.3017 27.3397 77.3296 28.2663 77.1274 29.0059C76.9812 29.1435 76.9468 29.3176 76.9726 29.5089L76.9339 29.7347C76.0003 31.6739 75.4282 33.7055 75.2884 35.8639C75.2582 36.3154 75.2841 36.5261 75.7938 36.524C77.6136 36.5089 79.4333 36.5197 81.253 36.5175C81.5456 36.5175 81.879 36.5175 81.78 36.0746C81.352 34.1462 81.4316 32.0974 80.4098 30.3108C79.7581 28.4512 79.4892 22.0618 79.4699 21.6727L79.4914 21.5695C79.5925 21.3631 79.6936 21.1567 79.7947 20.9503C80.2335 20.4817 81.9865 20.0216 82.535 19.6389C83.5374 19.2928 84.0644 18.5726 83.9998 17.532C83.9353 16.5001 83.1373 15.9906 82.2833 15.6832C81.709 15.4768 81.1734 15.1973 80.6099 14.9802C78.8246 14.2857 77.0264 13.6214 75.2346 12.9442C69.2742 10.5342 46.9019 1.71119 45.1015 0.806094C43.0452 -0.227991 41.1416 -0.268839 39.0659 0.690001C37.1967 1.55425 8.40369 12.9163 8.24667 12.9786C5.97524 13.9009 3.68875 14.7867 1.45388 15.7907C0.630057 16.1626 -0.202371 16.7344 0.0428401 17.9126C0.0837087 18.6242 0.490244 19.0456 1.09467 19.3809L17.4572 26.2927L17.4593 26.2949ZM40.6748 52.5404C40.0876 52.9167 39.4122 53.0607 38.754 53.093C37.6462 53.1467 37.2569 52.4394 37.5086 50.9087C36.7493 50.9732 35.9513 51.3322 35.3103 50.6185C34.893 50.1541 34.9769 49.6403 35.0629 49.1093C35.1059 49.062 35.192 48.9846 35.1834 48.9717C35.1081 48.8599 35.0134 48.8921 34.921 48.9609C34.5209 49.0104 34.1229 49.0598 33.7229 49.1114C33.654 49.0942 33.583 49.0792 33.5142 49.062C33.3809 48.9695 33.2475 48.8771 33.1141 48.7846L32.9614 48.5997C32.9184 48.5417 32.8732 48.4815 32.8302 48.4235C32.7678 48.2794 32.7033 48.1354 32.6409 47.9913C32.6452 47.8494 32.6474 47.7076 32.6517 47.5657C32.7054 47.4195 32.7571 47.2733 32.8087 47.1271C32.8496 46.9895 32.8302 46.8971 32.6517 46.9314C31.7547 47.026 30.7351 47.2088 30.406 46.0844C30.1028 45.0482 30.7373 44.3022 31.5289 43.6336C32.7506 42.6038 34.1509 43.2186 35.0371 44.4376C35.7684 45.4416 36.9644 46.4305 38.1646 47.155C38.6056 47.4216 39.3111 47.4023 39.3713 48.0558C39.4703 49.1544 40.165 49.3027 41.0383 49.2684C42.3913 50.6636 42.2967 51.5021 40.677 52.5426L40.6748 52.5404Z" fill="#D51453"/>
</g>
<defs>
<clipPath id="clip0_721_94">
<rect width="84" height="55" fill="white"/>
</clipPath>
</defs>
</svg>
