<svg width="40" height="40" viewBox="0 0 40 40" fill="none" xmlns="http://www.w3.org/2000/svg">
<path d="M20.0804 0C9.10553 0 0.160804 8.9 0.160804 19.82C0.160804 23.32 1.08543 26.72 2.81407 29.72L0 40L10.5528 37.24C13.4673 38.82 16.7437 39.66 20.0804 39.66C31.0553 39.66 40 30.76 40 19.84C40 14.54 37.9296 9.56 34.1709 5.82C30.4121 2.06 25.407 0 20.0804 0ZM20.1005 3.34C24.5226 3.34 28.6633 5.06 31.799 8.18C34.9146 11.3 36.6432 15.44 36.6432 19.84C36.6432 28.92 29.206 36.3 20.0804 36.3C17.1055 36.3 14.191 35.52 11.6583 34L11.0553 33.66L4.78392 35.3L6.45226 29.22L6.05025 28.58C4.40201 26 3.51759 22.94 3.51759 19.82C3.53769 10.74 10.9548 3.34 20.1005 3.34ZM13.0251 10.66C12.7035 10.66 12.1608 10.78 11.6985 11.28C11.2563 11.78 9.94975 13 9.94975 15.42C9.94975 17.86 11.7387 20.2 11.9598 20.54C12.2412 20.88 15.4975 25.88 20.5025 28C21.6884 28.54 22.6131 28.84 23.3367 29.06C24.5226 29.44 25.608 29.38 26.4724 29.26C27.4372 29.12 29.407 28.06 29.8291 26.9C30.2513 25.74 30.2513 24.76 30.1307 24.54C29.9899 24.34 29.6683 24.22 29.1658 24C28.6633 23.72 26.2111 22.52 25.7688 22.36C25.3065 22.2 25.0251 22.12 24.6432 22.6C24.3216 23.1 23.3568 24.22 23.0754 24.54C22.7739 24.88 22.4925 24.92 22.01 24.68C21.4874 24.42 19.8794 23.9 17.9899 22.22C16.5025 20.9 15.5176 19.28 15.2161 18.78C14.9749 18.3 15.196 18 15.4372 17.78C15.6583 17.56 15.9799 17.2 16.1809 16.9C16.4422 16.62 16.5226 16.4 16.6834 16.08C16.8442 15.74 16.7638 15.46 16.6432 15.22C16.5226 15 15.5176 12.52 15.0955 11.54C14.6935 10.58 14.2915 10.7 13.9698 10.68C13.6884 10.68 13.3668 10.66 13.0251 10.66Z" fill="white"/>
</svg>
